:SAMPLES-PER-SECOND 30
:FULLY-SPECIFIED
:DEGREES
269
root  3.20547 29.3516 -3.8435 175.404 -73.7175 -154.344
RightUpLeg  -79.3917 -23.7505 8.54836
RightLeg  70.507 5.05578 14.8189
RightFoot  -5.91552 -0.789215 15.7127
RightToes  -6.40286e-010 0 -3.6325e-017
Spine  39.4173 -6.8623 -23.4269
Spine1  -20.887 -14.3269 20.7264
HEad  29.4933 14.3702 17.4208
LeftShoulder1  -0.0296715 6.75831 8.57599
LeftArm  -40.096 6.26206 -11.5528
LeftForeArm  -23.3505 -14.9112 -3.87702
LeftHand  -0.134279 4.93677 35.8472
RightShoulder  -0.404037 -6.97376 3.52968
RightArm  -34.1613 -38.481 34.1827
RightForeArm  -23.4011 28.7201 7.358
RightHand  -0.703938 1.75145 -11.5937
LeftUpLeg  -9.25936 34.6253 51.7697
LeftLeg  2.87915 13.2124 5.32341
LeftFoot  27.8742 12.7391 -35.3178
LeftToes  -2.09187e-010 -4.93792e-011 -8.21189e-011
270
root  2.89349 29.097 -4.2773 172.641 -74.7046 -152.876
RightUpLeg  -78.2598 -23.4414 7.32145
RightLeg  73.2667 3.83588 13.3007
RightFoot  -7.70147 -0.536126 15.1498
RightToes  -6.40286e-010 0 -3.6325e-017
Spine  39.6003 -7.35568 -21.4301
Spine1  -20.7429 -14.2302 19.1906
HEad  28.8173 12.2293 18.109
LeftShoulder1  -0.10193 5.85504 4.77071
LeftArm  -39.3194 8.75344 -16.7661
LeftForeArm  -26.4879 -13.7269 -3.47609
LeftHand  -0.157177 4.85832 35.3317
RightShoulder  -0.407237 -7.08181 3.2418
RightArm  -34.5109 -34.4017 28.6323
RightForeArm  -24.6618 30.0164 7.74533
RightHand  -0.589324 1.6396 -9.8816
LeftUpLeg  -8.91954 34.6506 52.6905
LeftLeg  3.46467 13.821 5.23788
LeftFoot  28.8886 12.8003 -34.5748
LeftToes  -2.09187e-010 -4.93792e-011 -8.21189e-011
271
root  2.61456 28.8701 -4.44419 169.844 -76.0866 -150.807
RightUpLeg  -77.2495 -23.0946 5.70298
RightLeg  75.1597 2.85047 11.1613
RightFoot  -9.57718 -0.297493 15.0076
RightToes  -6.40286e-010 0 -3.6325e-017
Spine  39.1236 -7.81223 -18.6184
Spine1  -20.333 -13.7322 17.3229
HEad  27.8899 9.28379 18.9914
LeftShoulder1  -0.136209 5.49541 1.92105
LeftArm  -39.4269 11.0831 -22.9079
LeftForeArm  -29.5505 -12.9865 -3.11789
LeftHand  -0.153941 4.85915 34.5589
RightShoulder  -0.400414 -7.04987 3.14209
RightArm  -35.1717 -29.5816 23.1804
RightForeArm  -27.6681 30.615 8.02688
RightHand  -0.50925 1.03953 -9.33093
LeftUpLeg  -10.2527 33.117 53.4537
LeftLeg  6.07297 14.614 5.23218
LeftFoot  28.6575 12.8694 -34.955
LeftToes  -2.09187e-010 -4.93792e-011 -8.21189e-011
272
root  2.35062 28.7082 -4.34931 169.264 -77.9249 -150.509
RightUpLeg  -76.5484 -23.2032 3.42006
RightLeg  76.3207 2.10235 8.77268
RightFoot  -10.9226 -0.12935 14.878
RightToes  -6.40286e-010 0 -3.6325e-017
Spine  38.0008 -8.19607 -15.2117
Spine1  -20.2232 -12.8455 14.7174
HEad  27.0154 5.31062 19.6713
LeftShoulder1  -0.178451 5.52638 -0.387695
LeftArm  -41.2255 13.4706 -29.2019
LeftForeArm  -32.1979 -13.8386 -2.98191
LeftHand  -0.193443 4.70485 33.1555
RightShoulder  -0.383545 -6.99088 2.81293
RightArm  -37.1774 -25.0682 18.1189
RightForeArm  -31.4382 30.9663 8.26727
RightHand  -0.515503 0.617497 -10.0443
LeftUpLeg  -12.6472 31.4786 53.486
LeftLeg  9.98386 15.4051 4.62028
LeftFoot  27.108 13.066 -36.8822
LeftToes  -2.09187e-010 -4.93792e-011 -8.21189e-011
273
root  2.10253 28.6447 -3.99046 171.465 -79.9976 -153.048
RightUpLeg  -75.6297 -23.884 0.368939
RightLeg  76.7925 1.57193 6.52129
RightFoot  -11.3455 -0.0767671 14.642
RightToes  -6.40286e-010 0 -3.6325e-017
Spine  36.5604 -8.31958 -10.7789
Spine1  -20.6061 -11.3893 10.6524
HEad  26.3067 0.0338967 19.7432
LeftShoulder1  -0.217676 5.49993 -2.76467
LeftArm  -43.3329 15.849 -34.4
LeftForeArm  -33.1854 -15.7784 -3.38758
LeftHand  -0.252323 4.47758 32.1281
RightShoulder  -0.363417 -7.08318 1.87381
RightArm  -40.9024 -21.851 13.699
RightForeArm  -34.303 31.3489 8.47532
RightHand  -0.562074 0.863328 -10.5474
LeftUpLeg  -15.7538 33.3622 51.6432
LeftLeg  13.9895 12.6589 3.82509
LeftFoot  24.5294 13.0717 -39.4962
LeftToes  -2.09187e-010 -4.93792e-011 -8.21189e-011
274
root  1.87254 28.6928 -3.38986 176.385 -82.2661 -158.607
RightUpLeg  -73.8125 -25.1 -3.59013
RightLeg  76.4853 1.29185 4.98193
RightFoot  -11.2531 -0.0885282 15.0661
RightToes  -6.40286e-010 0 -3.6325e-017
Spine  34.8623 -8.09487 -5.05882
Spine1  -21.089 -9.39525 4.78215
HEad  25.9462 -6.45609 19.1547
LeftShoulder1  -0.239324 5.35755 -5.01077
LeftArm  -44.001 17.868 -38.4218
LeftForeArm  -31.9181 -17.4251 -4.13221
LeftHand  -0.304306 4.3002 32.2979
RightShoulder  -0.348857 -7.49779 0.293029
RightArm  -45.3806 -20.2009 9.90433
RightForeArm  -35.7363 31.8188 8.65444
RightHand  -0.541388 0.930298 -10.0501
LeftUpLeg  -19.6194 37.827 47.8692
LeftLeg  17.9964 6.38826 2.61422
LeftFoot  21.3267 12.5035 -41.4757
LeftToes  -2.09187e-010 -4.93792e-011 -8.21189e-011
